<svg xmlns="http://www.w3.org/2000/svg" viewBox="0 0 221.19 94.79"><defs><style>.a{fill:#fff;}</style></defs><path class="a" d="M573.21,667.62c5.73,0,11.47,0,17.21,0s10.18,4,10.17,9.27c0,5.79-4.08,9.65-10.29,9.66-10.47,0-20.95,0-31.42,0-16.43,0-29,11.78-29.31,28.1A28.13,28.13,0,0,0,553.52,743a57.5,57.5,0,0,0,8.7.43c5.62.07,9.95,4.1,10,9.25,0,5.61-4.13,9.5-10.06,9.7-11.71.41-22.5-2.15-32.09-9.18-10.79-7.92-17.25-18.54-19-31.65-2.06-15.53,2.47-29.25,13.72-40.32,9.2-9.06,20.49-13.5,33.45-13.57C563.23,667.59,568.22,667.62,573.21,667.62Z" transform="translate(-510.58 -667.59)"/><path class="a" d="M697.49,685.55c1.19,2.41,2.31,4.85,3.57,7.22,5.13,9.65,10.31,19.26,15.44,28.9,4.74,8.91,9.49,17.83,14.13,26.79a9.14,9.14,0,0,1-.52,9.7,8.72,8.72,0,0,1-8.76,4.09,10.07,10.07,0,0,1-7.91-5.72q-9.21-17.44-18.47-34.89c-4-7.59-8.15-15.14-12.23-22.72-1.66-.84-1.66-2.79-2.72-4q-3.27-5.82-6.37-11.74c-1.12-1.35-.6-3.07-1-4.57-.25-4.09,1-7.53,4.66-9.67,4-2.32,7.78-1.34,11.32,1.21,2.17.93,2.82,3,3.83,4.89s2.13,3.58,3,5.48C695.93,682.24,697.56,683.55,697.49,685.55Z" transform="translate(-510.58 -667.59)"/><path class="a" d="M600.62,733.66q0,9.35,0,18.68c0,4-1.55,7.07-5.2,8.91a9,9,0,0,1-9.87-.78c-2.78-2-3.88-4.82-3.87-8.18,0-8.47,0-16.94.05-25.41,0-2-.52-2.52-2.49-2.49-6.9.12-13.8.07-20.7,0-5.82,0-10.16-4.21-10.09-9.65.07-5.18,4.42-9.26,10-9.27q16.08,0,32.17,0c6,0,10,4,10,10S600.62,727.6,600.62,733.66Z" transform="translate(-510.58 -667.59)"/><path class="a" d="M672.58,700.47c3.73,4.46,3.17,8.84.49,13.74-7.61,13.88-14.93,27.92-22.33,41.91-2.87,5.42-7.76,7.53-12.73,5.39a9.29,9.29,0,0,1-4.63-13.1c3.85-7.52,7.84-15,11.77-22.46.67-2,1.15-4.06,2.87-5.5,2.33-3.65,4.15-7.57,6.14-11.4a16.68,16.68,0,0,1,1.66-4.41A19.15,19.15,0,0,1,659,700c2.35-2.45,5.32-2.76,8.46-2.52C669.52,697.87,671.44,698.51,672.58,700.47Z" transform="translate(-510.58 -667.59)"/><path class="a" d="M682,748.05c-5.64,0-10-4.1-10-9.48s4.27-9.26,9.87-9.33S692,733.33,692,738.6,687.77,748,682,748.05Z" transform="translate(-510.58 -667.59)"/></svg>