<?xml version="1.0" encoding="utf-8"?>
<!-- Generator: Adobe Illustrator 24.1.2, SVG Export Plug-In . SVG Version: 6.00 Build 0)  -->
<svg version="1.1" id="Layer_1" xmlns="http://www.w3.org/2000/svg" xmlns:xlink="http://www.w3.org/1999/xlink" x="0px" y="0px"
	 width="168px" height="26px" viewBox="0 0 168 26" style="enable-background:new 0 0 74 26;" xml:space="preserve">
<style type="text/css">
	.st0{fill:#FFFFFF;}
</style>
<g>
	<path class="st0" d="M11.1,12.7h5.6v0.4c0,1-0.1,1.9-0.4,2.7c-0.2,0.7-0.6,1.4-1.2,2c-1.3,1.4-2.9,2.1-4.8,2.1
		c-1.9,0-3.5-0.7-4.9-2.1c-1.4-1.4-2-3-2-5c0-2,0.7-3.6,2.1-5C6.9,6.7,8.6,6,10.5,6c1.1,0,2.1,0.2,3,0.7c0.9,0.4,1.7,1.1,2.6,2.1
		l-1.5,1.4c-1.1-1.5-2.5-2.2-4.1-2.2C9.1,7.9,7.9,8.4,7,9.4c-1,1-1.5,2.2-1.5,3.7c0,1.5,0.5,2.8,1.6,3.7c1,0.9,2.1,1.4,3.3,1.4
		c1,0,1.9-0.3,2.7-1c0.8-0.7,1.3-1.5,1.3-2.5h-3.4V12.7z"/>
	<path class="st0" d="M20.9,11.2v4.9c0,1.4,0.6,2.1,1.7,2.1s1.7-0.7,1.7-2.1v-4.9h2v5c0,0.7-0.1,1.3-0.3,1.8
		c-0.2,0.4-0.4,0.8-0.9,1.2c-0.7,0.6-1.5,0.9-2.5,0.9c-1,0-1.9-0.3-2.5-0.9c-0.4-0.4-0.7-0.8-0.9-1.2c-0.2-0.4-0.2-1-0.2-1.8v-5
		H20.9z"/>
	<path class="st0" d="M28.7,11.2h2V12c0.4-0.4,0.7-0.7,1-0.8c0.3-0.1,0.6-0.2,1.1-0.2c1,0,1.7,0.4,2.3,1.3c0.6-0.8,1.5-1.3,2.5-1.3
		c1.9,0,2.9,1.2,2.9,3.5v5.3h-2v-4.8c0-0.8-0.1-1.4-0.3-1.7c-0.2-0.3-0.5-0.5-1-0.5c-0.5,0-0.9,0.2-1.2,0.6s-0.4,1.1-0.4,2v4.4h-2
		v-4.7c0-1.5-0.4-2.3-1.3-2.3c-0.6,0-1,0.2-1.2,0.6s-0.4,1.1-0.4,2v4.4h-2V11.2z"/>
	<path class="st0" d="M45.1,24.5h-2V11.2h2v0.9c0.8-0.8,1.7-1.2,2.7-1.2c1.2,0,2.1,0.4,2.9,1.3c0.8,0.9,1.2,1.9,1.2,3.3
		c0,1.3-0.4,2.4-1.2,3.2c-0.8,0.8-1.7,1.3-2.9,1.3c-1,0-1.9-0.4-2.7-1.2V24.5z M49.8,15.6c0-0.8-0.2-1.5-0.7-2
		c-0.5-0.5-1-0.8-1.7-0.8c-0.7,0-1.3,0.3-1.8,0.8s-0.7,1.2-0.7,2c0,0.8,0.2,1.5,0.7,2c0.4,0.5,1,0.8,1.8,0.8c0.7,0,1.3-0.3,1.7-0.8
		C49.6,17,49.8,16.4,49.8,15.6z"/>
	<path class="st0" d="M56.2,13.1v6.7h-2v-6.7h-0.8v-1.8h0.8V8.1h2v3.1h1.5v1.8H56.2z"/>
	<path class="st0" d="M58.7,7.7c0-0.3,0.1-0.6,0.4-0.9s0.6-0.4,0.9-0.4c0.4,0,0.7,0.1,0.9,0.4c0.3,0.2,0.4,0.5,0.4,0.9
		s-0.1,0.7-0.4,0.9C60.7,8.9,60.4,9,60,9s-0.7-0.1-0.9-0.4S58.7,8,58.7,7.7z M61,11.2v8.6h-2v-8.6H61z"/>
	<path class="st0" d="M63.1,15.5c0-1.2,0.4-2.3,1.3-3.2s2-1.3,3.2-1.3c1.3,0,2.4,0.4,3.3,1.3c0.9,0.9,1.3,1.9,1.3,3.2
		c0,1.3-0.4,2.4-1.3,3.2c-0.9,0.9-2,1.3-3.3,1.3c-1.3,0-2.4-0.4-3.2-1.3C63.6,17.9,63.1,16.8,63.1,15.5z M65.1,15.5
		c0,0.9,0.2,1.5,0.7,2c0.5,0.5,1.1,0.8,1.9,0.8c0.8,0,1.4-0.2,1.9-0.7s0.7-1.2,0.7-2c0-0.8-0.2-1.5-0.7-2c-0.5-0.5-1.1-0.8-1.9-0.8
		c-0.8,0-1.4,0.3-1.8,0.8S65.1,14.7,65.1,15.5z"/>
	<path class="st0" d="M74.3,11.2h2V12c0.7-0.7,1.5-1,2.3-1c1,0,1.8,0.3,2.3,0.9c0.5,0.5,0.7,1.4,0.7,2.6v5.2h-2V15
		c0-0.8-0.1-1.4-0.4-1.7c-0.2-0.3-0.6-0.5-1.2-0.5c-0.7,0-1.1,0.2-1.4,0.7c-0.3,0.4-0.4,1.2-0.4,2.2v4.1h-2V11.2z"/>
	<path class="st0" d="M98.1,16.5h-5.8l-1.5,3.3h-2.2l6.7-14.4l6.5,14.4h-2.2L98.1,16.5z M97.3,14.6l-2-4.6l-2.1,4.6H97.3z"/>
	<path class="st0" d="M109.7,11.6v2.6c-0.5-0.6-0.9-0.9-1.2-1.1c-0.4-0.2-0.8-0.3-1.2-0.3c-0.7,0-1.4,0.3-1.9,0.8s-0.7,1.2-0.7,2
		c0,0.8,0.2,1.5,0.7,2c0.5,0.5,1.1,0.8,1.8,0.8c0.5,0,0.9-0.1,1.3-0.3c0.4-0.2,0.8-0.6,1.2-1.2v2.6c-0.8,0.4-1.6,0.6-2.4,0.6
		c-1.3,0-2.4-0.4-3.3-1.3c-0.9-0.9-1.3-1.9-1.3-3.2c0-1.3,0.5-2.4,1.4-3.2s2-1.3,3.3-1.3C108.1,11,108.9,11.2,109.7,11.6z"/>
	<path class="st0" d="M117.9,11.2h2v8.6h-2v-0.9c-0.8,0.8-1.7,1.1-2.6,1.1c-1.2,0-2.2-0.4-2.9-1.3c-0.8-0.9-1.2-2-1.2-3.3
		c0-1.3,0.4-2.4,1.2-3.2s1.7-1.3,2.9-1.3c1,0,1.9,0.4,2.7,1.2V11.2z M113.2,15.5c0,0.8,0.2,1.5,0.7,2c0.5,0.5,1,0.8,1.7,0.8
		c0.7,0,1.3-0.3,1.8-0.8c0.5-0.5,0.7-1.2,0.7-2c0-0.8-0.2-1.5-0.7-2c-0.5-0.5-1-0.8-1.8-0.8c-0.7,0-1.2,0.3-1.7,0.8
		C113.4,14.1,113.2,14.7,113.2,15.5z"/>
	<path class="st0" d="M128.7,5h2v14.8h-2v-0.9c-0.8,0.8-1.7,1.1-2.6,1.1c-1.2,0-2.1-0.4-2.9-1.3c-0.8-0.9-1.2-2-1.2-3.3
		c0-1.3,0.4-2.3,1.2-3.2c0.8-0.9,1.7-1.3,2.9-1.3c1,0,1.9,0.4,2.7,1.2V5z M124,15.5c0,0.8,0.2,1.5,0.7,2c0.5,0.5,1,0.8,1.7,0.8
		c0.7,0,1.3-0.3,1.8-0.8c0.5-0.5,0.7-1.2,0.7-2c0-0.8-0.2-1.5-0.7-2c-0.5-0.5-1-0.8-1.8-0.8c-0.7,0-1.2,0.3-1.7,0.8
		C124.2,14.1,124,14.7,124,15.5z"/>
	<path class="st0" d="M141,16h-6.1c0.1,0.7,0.3,1.3,0.7,1.7c0.4,0.4,0.9,0.6,1.6,0.6c0.5,0,0.9-0.1,1.2-0.4c0.3-0.2,0.7-0.7,1.1-1.3
		l1.7,0.9c-0.3,0.4-0.5,0.8-0.8,1.1s-0.6,0.6-0.9,0.8c-0.3,0.2-0.7,0.3-1.1,0.4s-0.8,0.1-1.2,0.1c-1.3,0-2.3-0.4-3.1-1.2
		c-0.8-0.8-1.2-1.9-1.2-3.3c0-1.4,0.4-2.4,1.1-3.3c0.8-0.8,1.8-1.2,3-1.2c1.3,0,2.3,0.4,3,1.2c0.7,0.8,1.1,1.9,1.1,3.3L141,16z
		 M138.9,14.4c-0.3-1.1-0.9-1.6-2-1.6c-0.2,0-0.5,0-0.7,0.1c-0.2,0.1-0.4,0.2-0.6,0.3c-0.2,0.1-0.3,0.3-0.4,0.5s-0.2,0.4-0.3,0.7
		H138.9z"/>
	<path class="st0" d="M143.1,11.2h2V12c0.4-0.4,0.7-0.7,1-0.8c0.3-0.1,0.6-0.2,1.1-0.2c1,0,1.7,0.4,2.3,1.3c0.6-0.8,1.5-1.3,2.5-1.3
		c1.9,0,2.9,1.2,2.9,3.5v5.3h-2v-4.8c0-0.8-0.1-1.4-0.3-1.7c-0.2-0.3-0.5-0.5-1-0.5c-0.5,0-0.9,0.2-1.2,0.6c-0.2,0.4-0.4,1.1-0.4,2
		v4.4h-2v-4.7c0-1.5-0.4-2.3-1.3-2.3c-0.6,0-1,0.2-1.2,0.6c-0.3,0.4-0.4,1.1-0.4,2v4.4h-2V11.2z"/>
	<path class="st0" d="M159.8,18.2l-3.8-7h2.3l2.6,4.9l2.4-4.9h2.2l-6.8,13.2h-2.3L159.8,18.2z"/>
</g>
</svg>
